<mxfile host="app.diagrams.net" modified="2023-12-15T08:22:33.108Z" agent="Mozilla/5.0 (Windows NT 10.0; Win64; x64) AppleWebKit/537.36 (KHTML, like Gecko) Chrome/120.0.0.0 Safari/537.36" etag="NWRFaG2ScRB6g1cdHdXS" version="22.1.9" type="github">
  <diagram name="페이지-1" id="dvB39oBr4QtcS7D_-clN">
    <mxGraphModel dx="2809" dy="1081" grid="1" gridSize="10" guides="1" tooltips="1" connect="1" arrows="1" fold="1" page="0" pageScale="1" pageWidth="827" pageHeight="1169" math="0" shadow="0">
      <root>
        <mxCell id="0" />
        <mxCell id="1" parent="0" />
        <mxCell id="vL9_h5r1cBpTkOoQFscT-5" value="" style="edgeStyle=none;curved=1;rounded=0;orthogonalLoop=1;jettySize=auto;html=1;strokeColor=#E07A5F;fontFamily=Helvetica;fontSize=12;fontColor=default;endArrow=open;startSize=14;endSize=14;sourcePerimeterSpacing=8;targetPerimeterSpacing=8;labelBackgroundColor=none;" edge="1" parent="1" source="vL9_h5r1cBpTkOoQFscT-1" target="vL9_h5r1cBpTkOoQFscT-4">
          <mxGeometry relative="1" as="geometry" />
        </mxCell>
        <mxCell id="vL9_h5r1cBpTkOoQFscT-1" value="&lt;span style=&quot;font-size: 15px;&quot;&gt;Event Process&lt;br&gt;Modeling&lt;br&gt;&lt;/span&gt;" style="rounded=1;whiteSpace=wrap;html=1;labelBackgroundColor=none;fillColor=#F2CC8F;strokeColor=#E07A5F;fontColor=#393C56;" vertex="1" parent="1">
          <mxGeometry x="131" y="140" width="160" height="80" as="geometry" />
        </mxCell>
        <mxCell id="vL9_h5r1cBpTkOoQFscT-7" value="" style="edgeStyle=none;curved=1;rounded=0;orthogonalLoop=1;jettySize=auto;html=1;strokeColor=#E07A5F;fontFamily=Helvetica;fontSize=12;fontColor=default;endArrow=open;startSize=14;endSize=14;sourcePerimeterSpacing=8;targetPerimeterSpacing=8;labelBackgroundColor=none;" edge="1" parent="1" source="vL9_h5r1cBpTkOoQFscT-4" target="vL9_h5r1cBpTkOoQFscT-6">
          <mxGeometry relative="1" as="geometry" />
        </mxCell>
        <mxCell id="vL9_h5r1cBpTkOoQFscT-57" value="" style="edgeStyle=none;curved=1;rounded=0;orthogonalLoop=1;jettySize=auto;html=1;strokeColor=#E07A5F;fontFamily=Helvetica;fontSize=12;fontColor=#393C56;endArrow=open;startSize=14;endSize=14;sourcePerimeterSpacing=8;targetPerimeterSpacing=8;fillColor=#F2CC8F;" edge="1" parent="1" source="vL9_h5r1cBpTkOoQFscT-4" target="vL9_h5r1cBpTkOoQFscT-56">
          <mxGeometry relative="1" as="geometry" />
        </mxCell>
        <mxCell id="vL9_h5r1cBpTkOoQFscT-4" value="&lt;span style=&quot;font-size: 15px;&quot;&gt;모델 시나리오&lt;br&gt;&lt;/span&gt;" style="rounded=1;whiteSpace=wrap;html=1;labelBackgroundColor=none;fillColor=#F2CC8F;strokeColor=#E07A5F;fontColor=#393C56;" vertex="1" parent="1">
          <mxGeometry x="131" y="340" width="160" height="80" as="geometry" />
        </mxCell>
        <mxCell id="vL9_h5r1cBpTkOoQFscT-38" value="" style="edgeStyle=none;curved=1;rounded=0;orthogonalLoop=1;jettySize=auto;html=1;strokeColor=#E07A5F;fontFamily=Helvetica;fontSize=12;fontColor=#393C56;endArrow=open;startSize=14;endSize=14;sourcePerimeterSpacing=8;targetPerimeterSpacing=8;fillColor=#F2CC8F;" edge="1" parent="1" source="vL9_h5r1cBpTkOoQFscT-6" target="vL9_h5r1cBpTkOoQFscT-37">
          <mxGeometry relative="1" as="geometry" />
        </mxCell>
        <mxCell id="vL9_h5r1cBpTkOoQFscT-54" value="" style="edgeStyle=none;curved=1;rounded=0;orthogonalLoop=1;jettySize=auto;html=1;strokeColor=#E07A5F;fontFamily=Helvetica;fontSize=12;fontColor=#393C56;endArrow=open;startSize=14;endSize=14;sourcePerimeterSpacing=8;targetPerimeterSpacing=8;fillColor=#F2CC8F;" edge="1" parent="1" source="vL9_h5r1cBpTkOoQFscT-6" target="vL9_h5r1cBpTkOoQFscT-53">
          <mxGeometry relative="1" as="geometry" />
        </mxCell>
        <mxCell id="vL9_h5r1cBpTkOoQFscT-6" value="&lt;font style=&quot;font-size: 15px;&quot;&gt;비즈니스 프로세스&lt;/font&gt;" style="rounded=1;whiteSpace=wrap;html=1;labelBackgroundColor=none;fillColor=#F2CC8F;strokeColor=#E07A5F;fontColor=#393C56;" vertex="1" parent="1">
          <mxGeometry x="131" y="540" width="160" height="80" as="geometry" />
        </mxCell>
        <mxCell id="vL9_h5r1cBpTkOoQFscT-14" value="시나리오" style="text;html=1;align=center;verticalAlign=middle;resizable=0;points=[];autosize=1;strokeColor=none;fillColor=none;fontSize=12;fontFamily=Helvetica;fontColor=#393C56;" vertex="1" parent="1">
          <mxGeometry x="55" y="281" width="66" height="26" as="geometry" />
        </mxCell>
        <mxCell id="vL9_h5r1cBpTkOoQFscT-15" value="" style="shape=table;startSize=0;container=1;collapsible=0;childLayout=tableLayout;rounded=1;labelBackgroundColor=none;strokeColor=#E07A5F;align=center;verticalAlign=middle;fontFamily=Helvetica;fontSize=12;fontColor=#393C56;fillColor=#F2CC8F;html=1;" vertex="1" parent="1">
          <mxGeometry x="-699" y="240" width="439" height="225" as="geometry" />
        </mxCell>
        <mxCell id="vL9_h5r1cBpTkOoQFscT-16" value="" style="shape=tableRow;horizontal=0;startSize=0;swimlaneHead=0;swimlaneBody=0;strokeColor=inherit;top=0;left=0;bottom=0;right=0;collapsible=0;dropTarget=0;fillColor=none;points=[[0,0.5],[1,0.5]];portConstraint=eastwest;rounded=1;labelBackgroundColor=none;align=center;verticalAlign=middle;fontFamily=Helvetica;fontSize=12;fontColor=#393C56;html=1;" vertex="1" parent="vL9_h5r1cBpTkOoQFscT-15">
          <mxGeometry width="439" height="45" as="geometry" />
        </mxCell>
        <mxCell id="vL9_h5r1cBpTkOoQFscT-17" value="모델" style="shape=partialRectangle;html=1;whiteSpace=wrap;connectable=0;strokeColor=#b85450;overflow=hidden;fillColor=#f8cecc;top=0;left=0;bottom=0;right=0;pointerEvents=1;rounded=1;labelBackgroundColor=none;align=center;verticalAlign=middle;fontFamily=Helvetica;fontSize=12;" vertex="1" parent="vL9_h5r1cBpTkOoQFscT-16">
          <mxGeometry width="146" height="45" as="geometry">
            <mxRectangle width="146" height="45" as="alternateBounds" />
          </mxGeometry>
        </mxCell>
        <mxCell id="vL9_h5r1cBpTkOoQFscT-18" value="작성관점&lt;span style=&quot;white-space: pre;&quot;&gt;&#x9;&lt;/span&gt;" style="shape=partialRectangle;html=1;whiteSpace=wrap;connectable=0;strokeColor=#b85450;overflow=hidden;fillColor=#f8cecc;top=0;left=0;bottom=0;right=0;pointerEvents=1;rounded=1;labelBackgroundColor=none;align=center;verticalAlign=middle;fontFamily=Helvetica;fontSize=12;" vertex="1" parent="vL9_h5r1cBpTkOoQFscT-16">
          <mxGeometry x="146" width="147" height="45" as="geometry">
            <mxRectangle width="147" height="45" as="alternateBounds" />
          </mxGeometry>
        </mxCell>
        <mxCell id="vL9_h5r1cBpTkOoQFscT-19" value="시나리오 단위" style="shape=partialRectangle;html=1;whiteSpace=wrap;connectable=0;strokeColor=#b85450;overflow=hidden;fillColor=#f8cecc;top=0;left=0;bottom=0;right=0;pointerEvents=1;rounded=1;labelBackgroundColor=none;align=center;verticalAlign=middle;fontFamily=Helvetica;fontSize=12;" vertex="1" parent="vL9_h5r1cBpTkOoQFscT-16">
          <mxGeometry x="293" width="146" height="45" as="geometry">
            <mxRectangle width="146" height="45" as="alternateBounds" />
          </mxGeometry>
        </mxCell>
        <mxCell id="vL9_h5r1cBpTkOoQFscT-20" value="" style="shape=tableRow;horizontal=0;startSize=0;swimlaneHead=0;swimlaneBody=0;strokeColor=inherit;top=0;left=0;bottom=0;right=0;collapsible=0;dropTarget=0;fillColor=none;points=[[0,0.5],[1,0.5]];portConstraint=eastwest;rounded=1;labelBackgroundColor=none;align=center;verticalAlign=middle;fontFamily=Helvetica;fontSize=12;fontColor=#393C56;html=1;" vertex="1" parent="vL9_h5r1cBpTkOoQFscT-15">
          <mxGeometry y="45" width="439" height="45" as="geometry" />
        </mxCell>
        <mxCell id="vL9_h5r1cBpTkOoQFscT-21" value="비즈니스 현행 모델&lt;br&gt;비즈니스 목표 모델" style="shape=partialRectangle;html=1;whiteSpace=wrap;connectable=0;strokeColor=inherit;overflow=hidden;fillColor=none;top=0;left=0;bottom=0;right=0;pointerEvents=1;rounded=1;labelBackgroundColor=none;align=center;verticalAlign=middle;fontFamily=Helvetica;fontSize=12;fontColor=#393C56;" vertex="1" parent="vL9_h5r1cBpTkOoQFscT-20">
          <mxGeometry width="146" height="45" as="geometry">
            <mxRectangle width="146" height="45" as="alternateBounds" />
          </mxGeometry>
        </mxCell>
        <mxCell id="vL9_h5r1cBpTkOoQFscT-22" value="비즈니스 프로세스" style="shape=partialRectangle;html=1;whiteSpace=wrap;connectable=0;strokeColor=inherit;overflow=hidden;fillColor=none;top=0;left=0;bottom=0;right=0;pointerEvents=1;rounded=1;labelBackgroundColor=none;align=center;verticalAlign=middle;fontFamily=Helvetica;fontSize=12;fontColor=#393C56;" vertex="1" parent="vL9_h5r1cBpTkOoQFscT-20">
          <mxGeometry x="146" width="147" height="45" as="geometry">
            <mxRectangle width="147" height="45" as="alternateBounds" />
          </mxGeometry>
        </mxCell>
        <mxCell id="vL9_h5r1cBpTkOoQFscT-23" value="비즈니스 프로세스" style="shape=partialRectangle;html=1;whiteSpace=wrap;connectable=0;strokeColor=inherit;overflow=hidden;fillColor=none;top=0;left=0;bottom=0;right=0;pointerEvents=1;rounded=1;labelBackgroundColor=none;align=center;verticalAlign=middle;fontFamily=Helvetica;fontSize=12;fontColor=#393C56;" vertex="1" parent="vL9_h5r1cBpTkOoQFscT-20">
          <mxGeometry x="293" width="146" height="45" as="geometry">
            <mxRectangle width="146" height="45" as="alternateBounds" />
          </mxGeometry>
        </mxCell>
        <mxCell id="vL9_h5r1cBpTkOoQFscT-24" value="" style="shape=tableRow;horizontal=0;startSize=0;swimlaneHead=0;swimlaneBody=0;strokeColor=inherit;top=0;left=0;bottom=0;right=0;collapsible=0;dropTarget=0;fillColor=none;points=[[0,0.5],[1,0.5]];portConstraint=eastwest;rounded=1;labelBackgroundColor=none;align=center;verticalAlign=middle;fontFamily=Helvetica;fontSize=12;fontColor=#393C56;html=1;" vertex="1" parent="vL9_h5r1cBpTkOoQFscT-15">
          <mxGeometry y="90" width="439" height="45" as="geometry" />
        </mxCell>
        <mxCell id="vL9_h5r1cBpTkOoQFscT-25" value="유즈케이스 모델" style="shape=partialRectangle;html=1;whiteSpace=wrap;connectable=0;strokeColor=inherit;overflow=hidden;fillColor=none;top=0;left=0;bottom=0;right=0;pointerEvents=1;rounded=1;labelBackgroundColor=none;align=center;verticalAlign=middle;fontFamily=Helvetica;fontSize=12;fontColor=#393C56;" vertex="1" parent="vL9_h5r1cBpTkOoQFscT-24">
          <mxGeometry width="146" height="45" as="geometry">
            <mxRectangle width="146" height="45" as="alternateBounds" />
          </mxGeometry>
        </mxCell>
        <mxCell id="vL9_h5r1cBpTkOoQFscT-26" value="사용자" style="shape=partialRectangle;html=1;whiteSpace=wrap;connectable=0;strokeColor=inherit;overflow=hidden;fillColor=none;top=0;left=0;bottom=0;right=0;pointerEvents=1;rounded=1;labelBackgroundColor=none;align=center;verticalAlign=middle;fontFamily=Helvetica;fontSize=12;fontColor=#393C56;" vertex="1" parent="vL9_h5r1cBpTkOoQFscT-24">
          <mxGeometry x="146" width="147" height="45" as="geometry">
            <mxRectangle width="147" height="45" as="alternateBounds" />
          </mxGeometry>
        </mxCell>
        <mxCell id="vL9_h5r1cBpTkOoQFscT-27" value="프로세스" style="shape=partialRectangle;html=1;whiteSpace=wrap;connectable=0;strokeColor=inherit;overflow=hidden;fillColor=none;top=0;left=0;bottom=0;right=0;pointerEvents=1;rounded=1;labelBackgroundColor=none;align=center;verticalAlign=middle;fontFamily=Helvetica;fontSize=12;fontColor=#393C56;" vertex="1" parent="vL9_h5r1cBpTkOoQFscT-24">
          <mxGeometry x="293" width="146" height="45" as="geometry">
            <mxRectangle width="146" height="45" as="alternateBounds" />
          </mxGeometry>
        </mxCell>
        <mxCell id="vL9_h5r1cBpTkOoQFscT-28" value="" style="shape=tableRow;horizontal=0;startSize=0;swimlaneHead=0;swimlaneBody=0;strokeColor=inherit;top=0;left=0;bottom=0;right=0;collapsible=0;dropTarget=0;fillColor=none;points=[[0,0.5],[1,0.5]];portConstraint=eastwest;rounded=1;labelBackgroundColor=none;align=center;verticalAlign=middle;fontFamily=Helvetica;fontSize=12;fontColor=#393C56;html=1;" vertex="1" parent="vL9_h5r1cBpTkOoQFscT-15">
          <mxGeometry y="135" width="439" height="45" as="geometry" />
        </mxCell>
        <mxCell id="vL9_h5r1cBpTkOoQFscT-29" value="시스템 모델" style="shape=partialRectangle;html=1;whiteSpace=wrap;connectable=0;strokeColor=inherit;overflow=hidden;fillColor=none;top=0;left=0;bottom=0;right=0;pointerEvents=1;rounded=1;labelBackgroundColor=none;align=center;verticalAlign=middle;fontFamily=Helvetica;fontSize=12;fontColor=#393C56;" vertex="1" parent="vL9_h5r1cBpTkOoQFscT-28">
          <mxGeometry width="146" height="45" as="geometry">
            <mxRectangle width="146" height="45" as="alternateBounds" />
          </mxGeometry>
        </mxCell>
        <mxCell id="vL9_h5r1cBpTkOoQFscT-30" value="시스템 처리" style="shape=partialRectangle;html=1;whiteSpace=wrap;connectable=0;strokeColor=inherit;overflow=hidden;fillColor=none;top=0;left=0;bottom=0;right=0;pointerEvents=1;rounded=1;labelBackgroundColor=none;align=center;verticalAlign=middle;fontFamily=Helvetica;fontSize=12;fontColor=#393C56;" vertex="1" parent="vL9_h5r1cBpTkOoQFscT-28">
          <mxGeometry x="146" width="147" height="45" as="geometry">
            <mxRectangle width="147" height="45" as="alternateBounds" />
          </mxGeometry>
        </mxCell>
        <mxCell id="vL9_h5r1cBpTkOoQFscT-31" value="프로세스" style="shape=partialRectangle;html=1;whiteSpace=wrap;connectable=0;strokeColor=inherit;overflow=hidden;fillColor=none;top=0;left=0;bottom=0;right=0;pointerEvents=1;rounded=1;labelBackgroundColor=none;align=center;verticalAlign=middle;fontFamily=Helvetica;fontSize=12;fontColor=#393C56;" vertex="1" parent="vL9_h5r1cBpTkOoQFscT-28">
          <mxGeometry x="293" width="146" height="45" as="geometry">
            <mxRectangle width="146" height="45" as="alternateBounds" />
          </mxGeometry>
        </mxCell>
        <mxCell id="vL9_h5r1cBpTkOoQFscT-32" style="shape=tableRow;horizontal=0;startSize=0;swimlaneHead=0;swimlaneBody=0;strokeColor=inherit;top=0;left=0;bottom=0;right=0;collapsible=0;dropTarget=0;fillColor=none;points=[[0,0.5],[1,0.5]];portConstraint=eastwest;rounded=1;labelBackgroundColor=none;align=center;verticalAlign=middle;fontFamily=Helvetica;fontSize=12;fontColor=#393C56;html=1;" vertex="1" parent="vL9_h5r1cBpTkOoQFscT-15">
          <mxGeometry y="180" width="439" height="45" as="geometry" />
        </mxCell>
        <mxCell id="vL9_h5r1cBpTkOoQFscT-33" value="프로토타입 모델" style="shape=partialRectangle;html=1;whiteSpace=wrap;connectable=0;strokeColor=inherit;overflow=hidden;fillColor=none;top=0;left=0;bottom=0;right=0;pointerEvents=1;rounded=1;labelBackgroundColor=none;align=center;verticalAlign=middle;fontFamily=Helvetica;fontSize=12;fontColor=#393C56;" vertex="1" parent="vL9_h5r1cBpTkOoQFscT-32">
          <mxGeometry width="146" height="45" as="geometry">
            <mxRectangle width="146" height="45" as="alternateBounds" />
          </mxGeometry>
        </mxCell>
        <mxCell id="vL9_h5r1cBpTkOoQFscT-34" value="사용자" style="shape=partialRectangle;html=1;whiteSpace=wrap;connectable=0;strokeColor=inherit;overflow=hidden;fillColor=none;top=0;left=0;bottom=0;right=0;pointerEvents=1;rounded=1;labelBackgroundColor=none;align=center;verticalAlign=middle;fontFamily=Helvetica;fontSize=12;fontColor=#393C56;" vertex="1" parent="vL9_h5r1cBpTkOoQFscT-32">
          <mxGeometry x="146" width="147" height="45" as="geometry">
            <mxRectangle width="147" height="45" as="alternateBounds" />
          </mxGeometry>
        </mxCell>
        <mxCell id="vL9_h5r1cBpTkOoQFscT-35" value="항목" style="shape=partialRectangle;html=1;whiteSpace=wrap;connectable=0;strokeColor=inherit;overflow=hidden;fillColor=none;top=0;left=0;bottom=0;right=0;pointerEvents=1;rounded=1;labelBackgroundColor=none;align=center;verticalAlign=middle;fontFamily=Helvetica;fontSize=12;fontColor=#393C56;" vertex="1" parent="vL9_h5r1cBpTkOoQFscT-32">
          <mxGeometry x="293" width="146" height="45" as="geometry">
            <mxRectangle width="146" height="45" as="alternateBounds" />
          </mxGeometry>
        </mxCell>
        <mxCell id="vL9_h5r1cBpTkOoQFscT-44" value="" style="edgeStyle=none;curved=1;rounded=0;orthogonalLoop=1;jettySize=auto;html=1;strokeColor=#E07A5F;fontFamily=Helvetica;fontSize=12;fontColor=#393C56;endArrow=open;startSize=14;endSize=14;sourcePerimeterSpacing=8;targetPerimeterSpacing=8;fillColor=#F2CC8F;" edge="1" parent="1" source="vL9_h5r1cBpTkOoQFscT-37" target="vL9_h5r1cBpTkOoQFscT-43">
          <mxGeometry relative="1" as="geometry" />
        </mxCell>
        <mxCell id="vL9_h5r1cBpTkOoQFscT-37" value="&lt;font style=&quot;font-size: 15px;&quot;&gt;시나리오를 작성하는 기본 단위&lt;/font&gt;" style="rounded=1;whiteSpace=wrap;html=1;labelBackgroundColor=none;fillColor=#F2CC8F;strokeColor=#E07A5F;fontColor=#393C56;" vertex="1" parent="1">
          <mxGeometry x="400" y="540" width="160" height="80" as="geometry" />
        </mxCell>
        <mxCell id="vL9_h5r1cBpTkOoQFscT-39" value="요구사항 분석" style="shape=step;perimeter=stepPerimeter;whiteSpace=wrap;html=1;fixedSize=1;rounded=1;labelBackgroundColor=none;strokeColor=#E07A5F;align=center;verticalAlign=middle;fontFamily=Helvetica;fontSize=12;fontColor=#393C56;fillColor=#F2CC8F;" vertex="1" parent="1">
          <mxGeometry x="-710" y="524" width="120" height="80" as="geometry" />
        </mxCell>
        <mxCell id="vL9_h5r1cBpTkOoQFscT-40" value="액터 추출" style="shape=step;perimeter=stepPerimeter;whiteSpace=wrap;html=1;fixedSize=1;rounded=1;labelBackgroundColor=none;strokeColor=#E07A5F;align=center;verticalAlign=middle;fontFamily=Helvetica;fontSize=12;fontColor=#393C56;fillColor=#F2CC8F;" vertex="1" parent="1">
          <mxGeometry x="-565" y="524" width="120" height="80" as="geometry" />
        </mxCell>
        <mxCell id="vL9_h5r1cBpTkOoQFscT-41" value="액터 중심&lt;br&gt;프로세스 정리" style="shape=step;perimeter=stepPerimeter;whiteSpace=wrap;html=1;fixedSize=1;rounded=1;labelBackgroundColor=none;strokeColor=#E07A5F;align=center;verticalAlign=middle;fontFamily=Helvetica;fontSize=12;fontColor=#393C56;fillColor=#F2CC8F;" vertex="1" parent="1">
          <mxGeometry x="-414" y="524" width="120" height="80" as="geometry" />
        </mxCell>
        <mxCell id="vL9_h5r1cBpTkOoQFscT-42" value="주어 + 목적어 + 동사 형태의 문장" style="whiteSpace=wrap;html=1;rounded=1;labelBackgroundColor=none;strokeColor=#E07A5F;align=center;verticalAlign=middle;fontFamily=Helvetica;fontSize=12;fontColor=#393C56;fillColor=#F2CC8F;" vertex="1" parent="1">
          <mxGeometry x="-685" y="630" width="340" height="40" as="geometry" />
        </mxCell>
        <mxCell id="vL9_h5r1cBpTkOoQFscT-47" value="" style="edgeStyle=none;curved=1;rounded=0;orthogonalLoop=1;jettySize=auto;html=1;strokeColor=#E07A5F;fontFamily=Helvetica;fontSize=12;fontColor=#393C56;endArrow=open;startSize=14;endSize=14;sourcePerimeterSpacing=8;targetPerimeterSpacing=8;fillColor=#F2CC8F;" edge="1" parent="1" source="vL9_h5r1cBpTkOoQFscT-43" target="vL9_h5r1cBpTkOoQFscT-46">
          <mxGeometry relative="1" as="geometry" />
        </mxCell>
        <mxCell id="vL9_h5r1cBpTkOoQFscT-43" value="&lt;span style=&quot;font-size: 15px;&quot;&gt;액터를 구분&lt;/span&gt;" style="rounded=1;whiteSpace=wrap;html=1;labelBackgroundColor=none;fillColor=#F2CC8F;strokeColor=#E07A5F;fontColor=#393C56;" vertex="1" parent="1">
          <mxGeometry x="400" y="710" width="160" height="80" as="geometry" />
        </mxCell>
        <mxCell id="vL9_h5r1cBpTkOoQFscT-51" value="" style="edgeStyle=none;curved=1;rounded=0;orthogonalLoop=1;jettySize=auto;html=1;strokeColor=#E07A5F;fontFamily=Helvetica;fontSize=12;fontColor=#393C56;endArrow=open;startSize=14;endSize=14;sourcePerimeterSpacing=8;targetPerimeterSpacing=8;fillColor=#F2CC8F;" edge="1" parent="1" source="vL9_h5r1cBpTkOoQFscT-46" target="vL9_h5r1cBpTkOoQFscT-50">
          <mxGeometry relative="1" as="geometry" />
        </mxCell>
        <mxCell id="vL9_h5r1cBpTkOoQFscT-46" value="&lt;span style=&quot;font-size: 15px;&quot;&gt;동사가 되는 부분인&lt;br&gt;프로세스를 작성&lt;br&gt;&lt;/span&gt;" style="rounded=1;whiteSpace=wrap;html=1;labelBackgroundColor=none;fillColor=#F2CC8F;strokeColor=#E07A5F;fontColor=#393C56;" vertex="1" parent="1">
          <mxGeometry x="400" y="890" width="160" height="80" as="geometry" />
        </mxCell>
        <mxCell id="vL9_h5r1cBpTkOoQFscT-50" value="1:1 관계로 작성" style="whiteSpace=wrap;html=1;fillColor=#F2CC8F;strokeColor=#E07A5F;fontColor=#393C56;rounded=1;labelBackgroundColor=none;" vertex="1" parent="1">
          <mxGeometry x="640" y="900" width="120" height="60" as="geometry" />
        </mxCell>
        <mxCell id="vL9_h5r1cBpTkOoQFscT-53" value="&lt;font style=&quot;font-size: 12px;&quot;&gt;유저 시나리오의&amp;nbsp;&lt;br style=&quot;border-color: var(--border-color);&quot;&gt;기반해서 실질적으로&lt;br style=&quot;border-color: var(--border-color);&quot;&gt;수행되는 프로세스&lt;/font&gt;" style="whiteSpace=wrap;html=1;fillColor=#F2CC8F;strokeColor=#E07A5F;fontColor=#393C56;rounded=1;labelBackgroundColor=none;" vertex="1" parent="1">
          <mxGeometry x="-100" y="550" width="120" height="60" as="geometry" />
        </mxCell>
        <mxCell id="vL9_h5r1cBpTkOoQFscT-56" value="&lt;font style=&quot;font-size: 12px;&quot;&gt;&lt;span style=&quot;color: rgb(57, 60, 86); font-family: Helvetica; font-style: normal; font-variant-ligatures: normal; font-variant-caps: normal; font-weight: 400; letter-spacing: normal; orphans: 2; text-align: center; text-indent: 0px; text-transform: none; widows: 2; word-spacing: 0px; -webkit-text-stroke-width: 0px; text-decoration-thickness: initial; text-decoration-style: initial; text-decoration-color: initial; float: none; display: inline !important;&quot;&gt;유저가 사용하는&lt;/span&gt;&lt;br style=&quot;border-color: var(--border-color); color: rgb(57, 60, 86); font-family: Helvetica; font-style: normal; font-variant-ligatures: normal; font-variant-caps: normal; font-weight: 400; letter-spacing: normal; orphans: 2; text-align: center; text-indent: 0px; text-transform: none; widows: 2; word-spacing: 0px; -webkit-text-stroke-width: 0px; text-decoration-thickness: initial; text-decoration-style: initial; text-decoration-color: initial;&quot;&gt;&lt;span style=&quot;color: rgb(57, 60, 86); font-family: Helvetica; font-style: normal; font-variant-ligatures: normal; font-variant-caps: normal; font-weight: 400; letter-spacing: normal; orphans: 2; text-align: center; text-indent: 0px; text-transform: none; widows: 2; word-spacing: 0px; -webkit-text-stroke-width: 0px; text-decoration-thickness: initial; text-decoration-style: initial; text-decoration-color: initial; float: none; display: inline !important;&quot;&gt;입장에서 정의 되는&lt;/span&gt;&lt;br style=&quot;border-color: var(--border-color); color: rgb(57, 60, 86); font-family: Helvetica; font-style: normal; font-variant-ligatures: normal; font-variant-caps: normal; font-weight: 400; letter-spacing: normal; orphans: 2; text-align: center; text-indent: 0px; text-transform: none; widows: 2; word-spacing: 0px; -webkit-text-stroke-width: 0px; text-decoration-thickness: initial; text-decoration-style: initial; text-decoration-color: initial;&quot;&gt;&lt;span style=&quot;color: rgb(57, 60, 86); font-family: Helvetica; font-style: normal; font-variant-ligatures: normal; font-variant-caps: normal; font-weight: 400; letter-spacing: normal; orphans: 2; text-align: center; text-indent: 0px; text-transform: none; widows: 2; word-spacing: 0px; -webkit-text-stroke-width: 0px; text-decoration-thickness: initial; text-decoration-style: initial; text-decoration-color: initial; float: none; display: inline !important;&quot;&gt;흐름&lt;/span&gt;&lt;br&gt;&lt;/font&gt;" style="whiteSpace=wrap;html=1;fillColor=#F2CC8F;strokeColor=#E07A5F;fontColor=#393C56;rounded=1;labelBackgroundColor=none;" vertex="1" parent="1">
          <mxGeometry x="-100" y="350" width="120" height="60" as="geometry" />
        </mxCell>
      </root>
    </mxGraphModel>
  </diagram>
</mxfile>
